<?xml version="1.0" encoding="UTF-8"?><svg id="a" xmlns="http://www.w3.org/2000/svg" xmlns:xlink="http://www.w3.org/1999/xlink" viewBox="0 0 300 300"><defs><linearGradient id="b" x1="19.88" y1="281.62" x2="280.07" y2="21.44" gradientUnits="userSpaceOnUse"><stop offset="0" stop-color="#b39af5"/><stop offset="1" stop-color="#4b1dc7"/></linearGradient></defs><path d="M149.97,14.4c-6.45.23-12.53,3.95-18.56,6.63-21.83,10.53-59.41,28.37-80.64,38.68-3.23,1.56-6.45,3.28-9.02,5.18-6.6,4.79-7.31,13.78-9.41,21.62-5.85,26.85-16.18,68.07-21.11,93.5-1.37,8.31,2.01,13,7.39,19.86,19.52,24.18,42.34,53.42,62.66,77.9,6.36,7.89,13.75,7.8,23.24,7.82,8.4.02,16.8.02,25.56.02,19.71.03,43.9-.02,62.62,0,7.95-.19,12.95.46,19.06-2.08,3.06-1.52,5.42-3.89,7.87-6.7,16.49-19.88,42.25-52.73,58.61-72.91,5.83-7.8,11.3-12.32,10.83-21.49-4.63-27.67-15.92-69.96-21.66-97.24-2.26-8.55-2.59-15.12-9.1-20.28-3.5-2.57-7.79-4.58-11.92-6.6-19.9-9.51-54.83-26.32-78.98-37.85-6.1-2.85-13.24-6.33-17.33-6.04h-.1Z" style="fill:url(#b); stroke:#876cd0; stroke-width:4px;"/><path d="M172.91,54.05h-42.98c-6.71,0-12.15,5.44-12.15,12.15v33.64c0,6.71,5.44,12.15,12.15,12.15h42.98c6.71,0,12.15-5.44,12.15-12.15v-33.64c0-6.71-5.44-12.15-12.15-12.15ZM140.67,96.1c0,1.29-1.05,2.34-2.34,2.34s-2.34-1.05-2.34-2.34v-26.16c0-1.29,1.05-2.34,2.34-2.34s2.34,1.05,2.34,2.34v26.16ZM153.75,96.1c0,1.29-1.05,2.34-2.34,2.34s-2.34-1.05-2.34-2.34v-26.16c0-1.29,1.05-2.34,2.34-2.34s2.34,1.05,2.34,2.34v26.16ZM166.84,96.1c0,1.29-1.05,2.34-2.34,2.34s-2.34-1.05-2.34-2.34v-26.16c0-1.29,1.05-2.34,2.34-2.34s2.34,1.05,2.34,2.34v26.16Z" style="fill:#fff;"/><path d="M172.91,202.74h-42.98c-6.71,0-12.15,5.44-12.15,12.15v33.64c0,6.71,5.44,12.15,12.15,12.15h42.98c6.71,0,12.15-5.44,12.15-12.15v-33.64c0-6.71-5.44-12.15-12.15-12.15ZM140.67,244.79c0,1.29-1.05,2.34-2.34,2.34s-2.34-1.05-2.34-2.34v-26.16c0-1.29,1.05-2.34,2.34-2.34s2.34,1.05,2.34,2.34v26.16ZM153.75,244.79c0,1.29-1.05,2.34-2.34,2.34s-2.34-1.05-2.34-2.34v-26.16c0-1.29,1.05-2.34,2.34-2.34s2.34,1.05,2.34,2.34v26.16ZM166.84,244.79c0,1.29-1.05,2.34-2.34,2.34s-2.34-1.05-2.34-2.34v-26.16c0-1.29,1.05-2.34,2.34-2.34s2.34,1.05,2.34,2.34v26.16Z" style="fill:#fff;"/><path d="M93.8,123.81h-33.64c-6.71,0-12.15,5.44-12.15,12.15v42.98c0,6.71,5.44,12.15,12.15,12.15h33.64c6.71,0,12.15-5.44,12.15-12.15v-42.98c0-6.71-5.44-12.15-12.15-12.15ZM90.07,172.87h-26.16c-1.29,0-2.34-1.05-2.34-2.34s1.05-2.34,2.34-2.34h26.16c1.29,0,2.34,1.05,2.34,2.34s-1.05,2.34-2.34,2.34ZM90.07,159.79h-26.16c-1.29,0-2.34-1.05-2.34-2.34s1.05-2.34,2.34-2.34h26.16c1.29,0,2.34,1.05,2.34,2.34s-1.05,2.34-2.34,2.34ZM90.07,146.71h-26.16c-1.29,0-2.34-1.05-2.34-2.34s1.05-2.34,2.34-2.34h26.16c1.29,0,2.34,1.05,2.34,2.34s-1.05,2.34-2.34,2.34Z" style="fill:#fff;"/><path d="M243.18,123.81h-33.64c-6.71,0-12.15,5.44-12.15,12.15v42.98c0,6.71,5.44,12.15,12.15,12.15h33.64c6.71,0,12.15-5.44,12.15-12.15v-42.98c0-6.71-5.44-12.15-12.15-12.15ZM239.44,172.87h-26.16c-1.29,0-2.34-1.05-2.34-2.34s1.05-2.34,2.34-2.34h26.16c1.29,0,2.34,1.05,2.34,2.34s-1.05,2.34-2.34,2.34ZM239.44,159.79h-26.16c-1.29,0-2.34-1.05-2.34-2.34s1.05-2.34,2.34-2.34h26.16c1.29,0,2.34,1.05,2.34,2.34s-1.05,2.34-2.34,2.34ZM239.44,146.71h-26.16c-1.29,0-2.34-1.05-2.34-2.34s1.05-2.34,2.34-2.34h26.16c1.29,0,2.34,1.05,2.34,2.34s-1.05,2.34-2.34,2.34Z" style="fill:#fff;"/><path d="M177.73,147.57c-2.48.02-4.93,1.02-6.71,2.74-1.23,1.19-1.94,2.4-3.43,2.83-.97.3-2.04.33-3.08.33-1.16,0-2.49-.08-3.46-.57-1.13-.55-1.83-1.61-2.71-2.47-1.2-1.19-2.36-1.92-2.76-3.47-.43-2.46-.72-5.7,1.18-7.59.99-.95,2.19-1.94,2.92-3.17,6.47-11.16-8.99-21.07-16.44-10.64-2.33,3.39-2.08,8.5.64,11.66,1.16,1.44,2.85,2.29,3.31,3.97.48,2.23.67,5.06-.55,7.06-.52.74-1.26,1.3-1.91,1.94-1.65,1.79-2.91,3.31-5.38,3.26-1.38.06-2.99.09-4.27-.35-1.65-.53-2.54-2.35-4.09-3.48-6.64-5.24-16.79.35-15.69,8.87.51,5.22,5.42,9.18,10.65,8.61,2.37-.21,4.63-1.33,6.24-3.06,1.06-1.11,1.8-2.19,3.38-2.55,2.93-.48,6.27-.56,8.09,1.92,1.35,1.62,3.52,2.74,3.74,5.04.9,7.55-1.88,5.86-4.78,11.02-3.2,6.24,1.68,14.25,8.8,14.07,6.83.16,11.69-7.23,9.09-13.4-.75-2.65-3.71-4.09-4.77-6.3-.6-1.92-.82-5.38.44-7.37.6-.85,1.43-1.43,2.16-2.19,1-.98,1.78-2.2,3.15-2.66,2.19-.57,6.08-.85,7.91,1.08,1.13,1.21,2.38,2.64,3.96,3.37,6.02,3.24,14.03-1.23,14.21-8.16.42-5.46-4.22-10.39-9.67-10.35h-.18Z" style="fill:#fff;"/></svg>